<svg xmlns="http://www.w3.org/2000/svg" width="41.8" height="54.537" viewBox="0 0 41.8 54.537">
  <g id="feather-pen_icon-icons.com_64932" transform="translate(-5.594)">
    <path id="Контур_1" data-name="Контур 1" d="M18.969,37.992c5.161-1.252,15.3-4.243,19.572-9.215-.4-.7-5.553-4.049-5.553-4.049H41.61C45.848,23.995,47.394,0,47.394,0s-17.623,12.037-22.3,19.55-9.262,19.132-9.262,19.132h0C10.041,46.436,5.594,52.616,5.594,52.616l4.875-3.262ZM45.295,4.02c-.194,2-.468,4.508-.838,7.057-1.375,9.493-2.82,11.2-3.088,11.446H32.987a1.886,1.886,0,0,0-1.7,1.686,2.438,2.438,0,0,0,.9,2.482c1.094.712,2.311,1.533,3.288,2.224C31.632,31.893,25.5,33.977,21.06,35.2L43.281,5.5C44.01,4.957,44.691,4.457,45.295,4.02ZM26.474,20.912C29,16.851,35.743,11.239,41.061,7.171c-4.029,4.645-9.432,11.023-14.566,17.559-2.008,2.555-4.057,5.217-6.049,7.837A106.96,106.96,0,0,1,26.474,20.912ZM29.287,46.5a64.188,64.188,0,0,1,15.687,4.4c-2.628-.621-5.25-1.224-7.891-1.647-2.633-.469-5.276-.829-7.911-1.039a42.16,42.16,0,0,0-6.822,0c.481.108.965.215,1.447.326,1.313.308,2.632.614,3.965,1A13.159,13.159,0,0,1,29.8,50.3a3.8,3.8,0,0,1,.57.346,2.075,2.075,0,0,1,.349.324,1.648,1.648,0,0,1,.075,2.04,1.824,1.824,0,0,1-.384.373l-.175.116-.137.078-.286.138a13.488,13.488,0,0,1-4.182.758c-1.358.084-2.705.072-4.049.025A106.105,106.105,0,0,1,5.595,52.615c2.675.046,5.341.172,8.009.174,2.665.051,5.329.063,7.981-.005,1.325-.044,2.647-.116,3.953-.236a16.465,16.465,0,0,0,2.989-.529c-.373-.136-.759-.261-1.151-.373-1.271-.355-2.579-.642-3.892-.934-1.315-.312-2.621-.592-3.982-1.021a4.562,4.562,0,0,1-1.153-.52,1.588,1.588,0,0,1-.253-.228,1.355,1.355,0,0,1-.339-.9,1.414,1.414,0,0,1,.159-.681,1.312,1.312,0,0,1,.215-.3,1.435,1.435,0,0,1,.282-.219,2.6,2.6,0,0,1,.655-.257,13.562,13.562,0,0,1,2.093-.343A34.494,34.494,0,0,1,29.287,46.5Z" fill="rgba(163,174,0,0.91)"/>
  </g>
</svg>
